<?xml version="1.0" standalone="no"?>
<!DOCTYPE svg PUBLIC "-//W3C//DTD SVG 20010904//EN"
 "http://www.w3.org/TR/2001/REC-SVG-20010904/DTD/svg10.dtd">
<svg version="1.0" xmlns="http://www.w3.org/2000/svg"
 width="1297.000000pt" height="1297.000000pt" viewBox="0 0 1297.000000 1297.000000"
 preserveAspectRatio="xMidYMid meet">
<metadata>
Created by potrace 1.14, written by Peter Selinger 2001-2017
</metadata>
<g transform="translate(0.000000,1297.000000) scale(0.100000,-0.100000)"
fill="#000000" stroke="none">
<path d="M6442 12210 c-110 -51 -244 -200 -351 -392 -50 -89 -47 -89 -153 -13
-214 154 -394 238 -577 270 -106 19 -162 19 -236 0 -100 -26 -165 -63 -241
-139 -91 -91 -161 -227 -203 -394 -15 -62 -32 -117 -37 -122 -5 -5 -45 -23
-89 -40 -222 -87 -595 -286 -835 -445 -477 -315 -944 -749 -1262 -1175 -29
-38 -58 -70 -65 -70 -7 0 -14 23 -18 58 -24 220 -108 356 -228 369 -65 8 -151
-22 -196 -66 -20 -20 -85 -90 -145 -156 -60 -66 -213 -227 -340 -357 -256
-263 -290 -312 -290 -413 0 -104 65 -200 151 -224 54 -15 133 -14 183 4 23 8
46 12 51 9 5 -3 9 -52 9 -108 l0 -103 -72 -58 c-40 -32 -121 -92 -180 -134
l-108 -76 0 -109 c0 -229 55 -525 135 -727 96 -243 232 -421 405 -531 25 -16
45 -34 45 -41 0 -8 -26 -15 -70 -20 -346 -37 -647 -243 -801 -548 -48 -97 -78
-185 -94 -276 -5 -35 -15 -90 -20 -123 -16 -88 16 -295 64 -423 97 -258 262
-440 515 -567 137 -68 247 -93 435 -96 87 -2 161 -6 164 -8 2 -3 -25 -34 -60
-68 -123 -119 -213 -287 -250 -468 -26 -126 -21 -328 12 -440 110 -381 401
-830 815 -1259 535 -554 1276 -1000 2138 -1286 l192 -63 60 -112 c79 -147 142
-229 219 -286 115 -85 238 -121 384 -111 158 10 300 70 424 178 31 27 59 49
62 49 3 0 26 -33 51 -73 120 -186 270 -277 459 -277 205 0 359 96 470 293 27
48 52 87 55 87 4 0 28 -25 54 -55 110 -127 291 -205 477 -205 248 0 431 133
571 414 l59 120 192 67 c557 193 1086 463 1491 762 351 258 696 598 948 935
231 307 408 651 455 882 22 112 15 344 -14 440 -51 168 -122 292 -233 403 -38
38 -69 73 -69 78 0 4 53 5 119 2 446 -22 848 231 1010 638 36 89 81 302 81
381 0 81 -46 299 -80 382 -42 101 -109 210 -179 292 -152 181 -421 320 -656
341 -113 10 -118 17 -44 68 318 213 502 636 535 1226 l7 127 -114 80 c-63 44
-141 103 -174 129 l-60 49 4 115 c2 63 4 115 6 117 2 2 24 -4 49 -12 92 -32
189 -16 255 41 55 46 75 104 69 195 -7 108 -36 157 -181 301 -186 186 -403
413 -561 585 -100 110 -252 121 -337 24 -63 -71 -108 -215 -109 -349 0 -28 -4
-54 -9 -57 -5 -3 -40 36 -77 87 -192 258 -548 635 -794 838 -410 339 -821 593
-1279 790 -75 32 -139 64 -143 71 -3 7 -17 61 -31 119 -45 191 -132 342 -249
432 -104 78 -223 114 -349 103 -202 -17 -410 -106 -648 -277 -52 -37 -98 -66
-102 -63 -5 2 -29 47 -55 100 -97 198 -192 319 -288 365 -33 16 -60 29 -60 29
-1 -1 -29 -14 -64 -30z m114 -89 c37 -23 90 -86 133 -159 28 -48 44 -88 21
-52 -8 12 -10 10 -10 -8 0 -13 -9 -45 -21 -72 l-21 -48 -76 -8 c-92 -8 -275 1
-299 15 -15 9 -12 10 17 11 78 1 176 75 186 141 8 49 -33 99 -82 99 -40 0 -44
17 -11 48 56 53 112 64 163 33z m-1127 -136 c61 -16 271 -117 255 -122 -11 -4
1 -95 17 -125 5 -10 8 -18 6 -18 -26 0 -435 -90 -566 -124 -96 -25 -177 -43
-180 -41 -2 3 1 5 7 5 12 0 -16 89 -37 114 -19 23 -4 20 32 -6 28 -20 45 -23
123 -23 83 0 94 2 139 30 88 55 102 127 35 188 -55 50 -150 23 -150 -43 0 -52
-73 -48 -86 5 -13 52 23 115 88 150 67 37 202 41 317 10z m2386 -5 c22 -10 47
-25 55 -32 52 -43 67 -120 30 -153 -25 -23 -70 -14 -63 13 7 27 -33 70 -71 78
-64 11 -126 -44 -126 -113 0 -37 46 -88 102 -113 58 -26 168 -27 225 -1 l41
19 -19 -56 c-15 -44 -16 -57 -7 -64 22 -13 3 -9 -220 47 -119 30 -288 69 -374
86 -107 22 -155 35 -150 43 14 22 30 121 20 125 -13 4 81 58 157 89 100 41
145 50 255 51 84 0 113 -3 145 -19z m-772 -334 c781 -90 1497 -353 2152 -789
509 -340 972 -787 1325 -1282 386 -542 686 -864 1028 -1107 l112 -80 0 -42 c0
-155 -52 -467 -105 -628 -38 -118 -114 -276 -169 -352 -119 -166 -285 -283
-471 -332 -101 -27 -321 -25 -426 4 -211 57 -426 199 -655 434 -139 143 -242
268 -385 469 -254 357 -432 573 -674 815 -238 239 -427 395 -675 557 -866 565
-1879 656 -2795 251 -648 -286 -1212 -785 -1767 -1561 -230 -322 -342 -455
-519 -619 -195 -181 -389 -299 -566 -345 -285 -74 -573 -2 -780 194 -123 117
-211 265 -282 472 -56 167 -110 485 -111 655 0 21 19 39 108 102 340 241 629
551 1027 1103 274 380 551 678 895 964 818 681 1764 1062 2828 1141 216 16
662 4 905 -24z m3662 -1766 c-5 -15 10 -43 55 -105 34 -46 69 -89 78 -94 14
-8 13 -10 -11 -16 -17 -5 -27 -14 -27 -25 0 -24 141 -233 243 -360 47 -58 129
-149 182 -204 l98 -98 1 -109 c1 -60 -2 -109 -6 -109 -13 0 -323 338 -417 455
-53 66 -128 167 -166 224 l-69 104 0 121 c-1 89 4 136 17 179 10 31 20 57 23
57 3 0 2 -9 -1 -20z m-8410 -195 l0 -140 -44 -65 c-108 -158 -235 -313 -450
-544 l-156 -169 -3 102 -3 103 110 113 c60 63 146 161 191 217 84 105 230 319
230 337 0 6 -12 17 -27 25 -16 9 -22 16 -13 16 19 1 130 158 130 185 1 16 4
14 18 -10 14 -24 17 -56 17 -170z m-435 129 c0 -19 63 -126 84 -143 12 -10 11
-15 -4 -34 -173 -209 -379 -429 -515 -551 -49 -44 -89 -84 -88 -88 6 -16 -14
-7 -35 15 -42 45 -53 113 -30 191 10 34 63 93 290 325 153 156 278 288 278
292 0 5 5 9 10 9 6 0 10 -7 10 -16z m9311 -51 c35 -38 159 -165 276 -283 148
-151 218 -228 232 -260 36 -79 23 -177 -29 -213 -18 -12 -26 -8 -92 52 -146
133 -328 323 -465 486 -47 55 -89 99 -95 97 -5 -1 8 19 30 45 43 52 72 103 72
128 0 8 2 15 4 15 2 0 33 -30 67 -67z m-4476 -38 c361 -22 797 -155 1145 -349
152 -85 351 -217 347 -230 -6 -18 -3437 -21 -3437 -3 0 26 312 220 485 302
216 102 380 162 580 210 301 73 527 91 880 70z m1577 -682 c-18 -3 -32 -8 -30
-12 2 -5 25 -27 51 -50 l48 -41 -1880 0 -1881 0 45 41 c51 47 54 56 23 62 -13
2 805 4 1817 4 1012 0 1825 -2 1807 -4z m-3643 -16 c-2 -1 -13 -9 -24 -17 -19
-14 -19 -14 -6 3 7 9 18 17 24 17 6 0 8 -1 6 -3z m1524 -355 l107 -3 0 -259 0
-259 -117 -3 -118 -3 0 -55 0 -55 293 -3 292 -2 0 60 0 59 -117 3 -118 3 -3
258 -2 257 108 0 108 0 38 71 39 71 36 -68 36 -69 108 -3 107 -3 0 -259 0
-259 -117 -3 -118 -3 0 -55 0 -55 288 -3 287 -2 0 60 0 60 -120 0 -120 0 0
260 0 260 108 0 107 0 35 70 c19 38 37 70 40 70 3 0 21 -30 40 -68 l35 -67
108 -3 107 -3 0 -259 0 -260 -120 0 -120 0 0 -60 0 -60 145 0 145 0 0 -95 0
-95 323 -1 c177 -1 331 -4 342 -7 17 -6 20 -16 20 -58 l0 -51 -80 -7 c-105 -8
-3550 -8 -3646 0 l-74 6 0 52 c0 42 3 52 20 58 11 3 132 6 269 7 232 1 248 2
241 19 -24 64 -86 265 -82 268 3 3 72 -11 153 -30 82 -19 180 -42 217 -50 51
-12 127 -16 303 -16 l234 0 0 60 0 59 -117 3 -118 3 -3 258 -2 257 110 0 110
0 36 72 36 72 37 -70 36 -69 108 -3z m-1883 -2166 c0 -2095 1 -2214 18 -2228
9 -8 186 -123 392 -255 1045 -669 1227 -787 1248 -806 39 -36 4 -38 -129 -7
-306 70 -553 156 -839 291 -645 303 -1212 732 -1743 1317 -143 158 -196 203
-306 257 -100 50 -205 75 -335 80 -60 3 -112 7 -115 10 -3 3 25 33 62 66 223
201 352 521 332 822 -22 349 -214 655 -517 830 -27 16 -48 32 -48 37 0 5 21
12 48 15 282 40 532 182 812 464 156 157 240 260 423 516 164 228 288 389 407
525 127 145 271 291 281 284 5 -3 9 -971 9 -2218z m4526 2122 c189 -199 394
-455 618 -772 132 -187 224 -295 390 -461 169 -168 279 -254 433 -337 102 -55
251 -105 347 -116 36 -5 71 -13 77 -19 7 -7 -19 -30 -88 -75 -228 -151 -366
-347 -434 -613 -29 -114 -30 -128 -26 -270 4 -123 10 -167 32 -245 53 -186
159 -359 299 -485 87 -79 83 -85 -64 -85 -124 0 -210 -17 -309 -59 -113 -48
-223 -131 -304 -230 -22 -25 -94 -104 -160 -175 -676 -719 -1560 -1260 -2382
-1459 -182 -44 -207 -49 -225 -37 -13 8 -13 11 0 23 8 8 128 86 265 174 138
88 423 272 635 408 212 136 417 268 455 292 39 24 124 79 190 122 l120 77 2
2209 c2 1216 5 2216 8 2223 2 6 9 12 14 12 5 0 53 -46 107 -102z m-3246 -304
c-45 -126 -83 -230 -85 -232 -3 -4 -243 54 -275 66 -24 9 -41 -11 230 277
l205 217 3 -49 c2 -41 -11 -89 -78 -279z m2795 -904 c33 -4 49 -8 35 -9 l-25
-1 3 -1433 2 -1433 -37 -28 c-182 -132 -229 -166 -235 -166 -4 0 -18 -9 -30
-21 -29 -26 -238 -175 -377 -268 -20 -13 -42 -30 -49 -37 -7 -7 -26 -21 -42
-31 -17 -9 -31 -24 -32 -33 0 -8 -4 14 -8 50 -4 36 -8 319 -9 630 l-1 565 45
68 c48 75 62 135 52 230 -3 39 0 58 12 77 34 49 44 89 37 147 -9 73 -59 192
-107 253 l-39 49 0 111 0 110 165 0 165 0 0 265 0 264 30 47 29 47 -37 66
c-20 36 -53 94 -72 128 -19 35 -40 63 -46 63 -5 0 -20 -19 -32 -42 -12 -24
-33 -63 -48 -88 -14 -25 -34 -60 -45 -78 -21 -36 -25 -67 -9 -77 31 -19 42
-70 43 -199 l1 -131 -77 -3 -77 -3 0 136 c0 135 0 137 30 180 l31 44 -25 48
c-23 46 -114 203 -122 212 -11 11 -59 -66 -136 -216 l-21 -41 31 -50 c32 -48
32 -50 32 -180 l0 -132 -80 0 -80 0 0 136 0 135 32 46 31 46 -18 31 c-10 17
-26 45 -35 61 -56 105 -93 165 -100 165 -8 0 -150 -242 -150 -255 0 -2 14 -27
30 -53 l30 -49 0 -262 0 -261 160 0 161 0 -3 -72 -3 -73 -70 -7 c-81 -7 -114
-18 -249 -83 -102 -49 -168 -66 -180 -46 -15 24 8 53 76 92 127 74 135 96 56
159 -29 22 -60 46 -68 53 -9 7 -37 28 -63 47 -40 29 -46 39 -42 60 3 14 10
102 15 195 5 109 14 190 25 225 25 79 71 168 116 222 21 26 39 49 39 52 0 3
-48 7 -107 8 l-106 3 -63 140 c-34 77 -67 141 -72 143 -6 2 -47 -63 -93 -143
l-83 -146 -75 3 -76 3 -71 138 c-38 75 -75 142 -81 148 -9 9 -30 -27 -85 -137
l-73 -149 -108 -3 c-81 -2 -108 -6 -104 -15 2 -7 46 -75 96 -151 139 -213 241
-433 241 -523 0 -42 -4 -48 -78 -121 -89 -88 -114 -133 -120 -214 -8 -104 3
-139 81 -255 94 -141 94 -154 10 -325 -33 -68 -69 -133 -79 -145 -28 -32 -59
-38 -82 -15 -39 39 -64 244 -66 532 l-1 185 65 120 c88 163 117 228 104 232
-6 2 -35 18 -65 36 -116 70 -205 238 -264 502 -27 120 -41 128 -91 49 -34 -53
-55 -56 -137 -19 -69 32 -120 35 -148 9 -12 -10 -50 -78 -84 -151 -51 -106
-69 -134 -93 -147 -42 -22 -54 -21 -160 16 -120 41 -126 35 -78 -68 49 -103
71 -186 83 -322 4 -49 11 -76 20 -79 8 -3 38 18 71 49 93 87 144 125 214 158
122 57 258 50 274 -14 12 -48 -52 -133 -136 -182 -33 -20 -49 -57 -32 -77 6
-7 28 -19 49 -26 60 -22 82 -40 93 -80 12 -42 29 -488 30 -796 0 -321 20 -451
80 -534 44 -60 82 -74 229 -79 l124 -5 -6 -161 c-4 -88 -14 -208 -23 -266 -9
-63 -14 -141 -12 -195 5 -103 15 -129 104 -251 81 -113 96 -151 91 -243 -2
-49 -6 -69 -11 -56 -4 11 -37 40 -73 65 -36 25 -71 50 -77 56 -11 10 -124 90
-155 109 -9 6 -18 13 -21 16 -3 3 -21 17 -42 30 -54 35 -202 141 -208 149 -3
3 -34 25 -70 49 -36 24 -84 59 -107 77 -23 19 -46 34 -52 34 -6 0 -11 4 -11 9
0 5 -8 12 -17 15 -10 3 -31 18 -48 32 -16 14 -43 33 -60 41 -16 9 -44 28 -61
42 -17 14 -41 33 -54 41 -24 16 -82 58 -139 102 -20 15 -43 31 -51 35 -8 3
-33 21 -55 38 -22 18 -51 38 -64 45 -13 6 -50 32 -82 57 l-59 44 0 1435 0
1434 -22 2 c-13 1 2 4 32 8 76 9 3690 10 3765 0z m2987 -506 c153 -31 318
-118 440 -233 199 -186 298 -416 298 -692 0 -253 -94 -481 -269 -658 -173
-175 -380 -267 -626 -278 -420 -19 -777 216 -934 615 -52 132 -68 361 -36 517
82 393 417 701 810 744 94 11 223 4 317 -15z m-9309 2 c165 -32 347 -129 470
-251 371 -367 381 -953 23 -1324 -149 -153 -328 -249 -531 -282 -91 -14 -307
-7 -380 14 -350 100 -598 348 -690 693 -23 84 -30 264 -16 364 56 383 355 702
736 785 82 18 296 18 388 1z m4232 -52 c36 -27 68 -93 59 -119 -13 -32 -41
-37 -70 -11 -24 20 -28 32 -32 90 -2 36 -1 66 3 66 3 0 21 -11 40 -26z m361
-80 c-8 -39 -37 -67 -68 -62 -19 2 -24 10 -26 41 -3 34 2 43 45 85 l48 47 3
-40 c2 -21 1 -53 -2 -71z m-105 -402 c-5 -15 -25 -63 -45 -107 l-37 -79 -24
40 c-13 22 -35 70 -49 106 l-25 67 87 3 c48 2 90 2 94 0 3 -1 3 -15 -1 -30z
m730 -574 c19 -6 46 -20 62 -30 26 -18 27 -24 27 -98 0 -43 -5 -82 -10 -85 -6
-4 -47 1 -91 11 -94 20 -174 70 -201 124 -22 43 -12 55 58 75 62 17 112 18
155 3z m-171 -471 c113 -49 183 -89 228 -131 l32 -30 0 -621 c0 -605 1 -622
20 -640 10 -9 39 -20 64 -22 l44 -5 -44 -24 c-25 -13 -50 -29 -57 -34 -7 -6
-43 -33 -82 -60 -38 -28 -74 -53 -80 -58 -54 -41 -115 -82 -123 -82 -6 0 -12
-4 -14 -8 -3 -8 -110 -87 -218 -162 -49 -34 -114 -81 -135 -98 -5 -4 -50 -36
-100 -70 -49 -34 -101 -70 -115 -81 -25 -20 -25 -20 -57 5 -23 18 -40 23 -65
19 -29 -4 -30 -4 -8 4 229 84 326 178 291 283 -6 18 -40 74 -76 123 -85 119
-145 233 -145 279 0 40 22 66 82 97 51 26 106 76 124 112 24 45 10 86 -62 183
-115 156 -189 313 -182 389 l3 35 170 -182 c321 -344 569 -600 592 -611 17 -7
28 -6 48 7 23 15 25 23 25 86 0 38 -5 81 -11 97 -6 15 -13 82 -16 148 -5 112
-1 155 28 329 15 94 6 148 -35 191 -29 30 -40 35 -79 35 -25 0 -57 4 -71 10
-22 8 -26 15 -26 52 0 24 7 74 15 113 19 91 19 108 -4 129 -31 28 -81 30 -120
4 -80 -54 -140 -73 -155 -50 -12 19 92 208 148 270 25 28 36 26 166 -31z
m-4310 -287 c148 -42 246 -112 397 -285 190 -217 468 -482 698 -665 706 -562
1444 -904 2189 -1015 91 -13 106 -19 180 -67 45 -28 85 -55 90 -59 20 -17
-344 27 -513 62 -532 109 -1098 353 -1606 692 -199 133 -337 240 -580 446
-125 107 -489 470 -575 574 -112 138 -240 214 -397 239 -344 54 -698 -185
-788 -532 -23 -88 -29 -217 -16 -310 49 -329 385 -855 836 -1305 282 -283 626
-544 965 -733 737 -411 1474 -646 2290 -729 272 -28 835 -25 1115 5 782 85
1523 324 2220 715 383 214 677 438 996 756 96 97 211 219 255 271 275 327 480
676 550 936 97 358 -75 722 -412 875 -104 47 -184 62 -304 56 -116 -6 -140
-13 -250 -64 -65 -30 -89 -50 -185 -151 -250 -263 -396 -411 -500 -507 -760
-698 -1621 -1135 -2500 -1270 -102 -15 -285 -33 -285 -28 0 2 38 28 85 59 80
52 92 56 183 69 734 105 1503 463 2207 1029 227 183 428 376 714 685 129 139
211 199 320 236 285 97 578 29 802 -183 181 -171 262 -364 261 -617 0 -144
-27 -259 -96 -417 -279 -640 -931 -1334 -1661 -1767 -144 -86 -507 -271 -660
-337 -969 -417 -1970 -565 -3005 -444 -627 73 -1287 272 -1883 567 -328 162
-533 286 -794 479 -612 454 -1138 1104 -1316 1628 -38 113 -41 130 -45 258 -3
105 0 155 13 215 35 162 96 280 205 396 113 121 247 201 404 243 79 21 107 24
206 20 75 -3 141 -12 190 -26z m1300 -1673 c30 -17 56 -31 58 -33 2 -1 -68
-130 -154 -285 -87 -156 -168 -309 -181 -339 -29 -70 -30 -142 -3 -185 42 -68
148 -114 219 -95 72 19 130 98 304 413 88 158 162 289 165 291 12 7 217 -113
217 -127 0 -21 -318 -587 -353 -628 -83 -96 -196 -140 -316 -120 -91 15 -199
61 -284 121 -84 59 -136 117 -171 190 -22 47 -26 68 -25 140 0 60 6 98 20 131
10 25 90 174 178 332 l158 287 57 -31 c31 -18 81 -45 111 -62z m5184 -7 c194
-60 341 -318 307 -537 -26 -165 -134 -296 -346 -420 -302 -175 -278 -163 -291
-145 -6 9 -63 107 -126 217 -64 110 -166 288 -228 395 -62 107 -114 198 -116
201 -5 8 319 198 408 239 83 39 199 69 269 69 31 1 87 -8 123 -19z m-1041
-452 c9 -29 13 -56 9 -59 -4 -4 -67 -26 -140 -49 -72 -23 -134 -46 -137 -50
-6 -9 74 -250 83 -250 4 0 43 12 87 26 44 14 106 34 137 44 l57 18 20 -60 c15
-43 17 -60 8 -63 -89 -27 -246 -80 -258 -86 -15 -8 -12 -24 30 -154 25 -79 50
-145 55 -145 8 0 305 95 332 106 7 3 20 -20 32 -56 16 -45 18 -62 9 -65 -127
-46 -573 -182 -578 -177 -4 4 -46 129 -94 277 -48 149 -114 351 -146 450 -32
99 -59 181 -59 183 0 1 6 2 13 2 6 0 120 36 252 80 132 43 247 79 256 79 10 1
21 -17 32 -51z m-3163 -22 c66 -18 88 -28 98 -47 7 -13 80 -188 163 -389 83
-201 153 -367 155 -369 9 -9 16 16 89 290 89 333 93 349 106 349 6 0 55 -12
110 -27 79 -21 98 -30 95 -42 -3 -9 -28 -104 -56 -211 -28 -107 -60 -224 -70
-260 -10 -36 -40 -146 -66 -245 -26 -99 -51 -184 -55 -189 -6 -7 -184 36 -195
47 -3 2 -188 444 -282 672 -25 61 -47 112 -48 114 -9 10 -18 -16 -55 -156 -22
-81 -60 -224 -85 -317 -24 -94 -46 -172 -48 -174 -4 -3 -207 47 -214 53 -2 2
27 115 64 251 117 437 144 537 161 607 12 47 22 67 32 67 9 0 54 -11 101 -24z
m2395 -227 l7 -56 -131 -18 c-101 -14 -131 -21 -131 -33 0 -15 13 -106 75
-545 19 -136 35 -253 35 -261 0 -10 -32 -17 -112 -27 -62 -7 -117 -14 -123
-14 -5 0 -13 23 -17 50 -4 28 -30 212 -58 409 -28 198 -52 362 -55 364 -2 3
-63 -4 -135 -15 l-130 -20 -5 21 c-2 12 -6 39 -9 62 l-6 41 203 28 c111 15
285 40 387 55 102 15 188 24 192 21 3 -3 9 -31 13 -62z m-1035 -56 c2 -2 3
-21 2 -41 -1 -20 -7 -134 -12 -252 -5 -118 -15 -316 -22 -439 l-12 -224 -119
6 c-65 3 -121 7 -124 10 -5 6 35 872 43 925 l5 33 117 -7 c64 -4 119 -9 122
-11z m1481 -1337 c0 -3 6 -21 14 -40 8 -20 15 -46 15 -60 0 -13 5 -26 12 -28
15 -5 -54 -82 -106 -117 -79 -54 -151 -74 -266 -74 -83 -1 -119 4 -170 21 -63
21 -137 62 -113 62 13 0 6 37 -11 59 -6 7 13 2 42 -13 30 -15 75 -29 100 -32
92 -10 154 54 103 105 -17 17 -25 19 -46 11 -34 -13 -57 -13 -92 1 -26 10 -26
12 -8 19 11 4 45 11 75 15 64 8 298 50 385 69 60 13 67 13 66 2z m-2651 -10
c30 -8 140 -28 245 -46 104 -17 191 -33 194 -35 6 -7 -48 -25 -72 -24 -12 0
-31 4 -42 8 -44 18 -87 -34 -61 -74 35 -54 132 -56 222 -5 l52 29 -15 -30 c-8
-16 -12 -36 -9 -44 9 -24 -113 -74 -211 -87 -157 -20 -301 23 -396 120 l-46
47 15 65 c8 36 15 71 16 78 2 16 41 15 108 -2z m1502 -142 c-13 -9 -49 -18
-81 -21 -65 -6 -97 -25 -106 -65 -6 -22 -1 -33 23 -58 53 -52 120 -34 211 60
30 30 52 47 48 38 -3 -9 -2 -32 3 -50 9 -31 7 -35 -48 -88 -31 -30 -84 -68
-117 -85 -54 -26 -70 -29 -161 -30 -96 0 -103 2 -175 37 -48 24 -92 55 -121
86 l-45 48 8 59 c4 32 6 62 3 66 -8 14 31 16 306 18 256 1 273 0 252 -15z"/>
<path d="M6105 11560 c-44 -5 -127 -14 -185 -20 -745 -81 -1437 -332 -2085
-758 -293 -192 -522 -379 -786 -642 -207 -206 -337 -355 -473 -539 -50 -68
-143 -194 -207 -280 -290 -393 -573 -688 -869 -905 -120 -88 -115 -77 -99
-231 19 -183 53 -339 106 -485 109 -301 291 -493 536 -562 108 -31 274 -29
387 4 321 95 618 358 980 868 247 348 410 547 638 782 617 632 1269 991 2002
1100 133 19 194 23 425 23 299 -1 443 -17 687 -76 884 -214 1670 -821 2370
-1829 66 -95 144 -197 249 -326 87 -107 294 -303 394 -374 109 -77 263 -151
365 -176 105 -25 260 -23 365 6 234 63 417 252 528 545 58 152 101 364 113
553 l6 97 -63 44 c-143 100 -263 204 -434 375 -196 196 -355 388 -596 720
-185 255 -318 414 -504 605 -743 761 -1656 1251 -2649 1422 -278 47 -439 60
-786 64 -184 2 -371 0 -415 -5z m308 -560 l2 -195 186 -3 186 -2 7 76 c3 42 6
130 6 196 l0 118 125 0 125 0 -5 -407 c-3 -225 -8 -441 -11 -480 l-6 -73 -119
0 -119 0 0 219 0 219 -31 6 c-17 3 -102 6 -189 6 -135 0 -159 -2 -164 -16 -3
-9 -6 -108 -6 -220 l0 -204 -126 0 -126 0 7 453 c3 248 8 466 10 482 l5 30
121 -5 120 -5 2 -195z m-638 145 c33 -9 61 -18 64 -20 2 -3 -1 -30 -8 -61 -12
-50 -15 -55 -34 -50 -112 32 -196 27 -284 -18 -176 -90 -235 -326 -131 -530
29 -57 105 -134 163 -164 43 -23 62 -27 135 -27 71 1 94 5 140 27 30 14 70 40
89 58 l34 32 38 -44 c21 -24 38 -48 39 -53 0 -17 -91 -82 -151 -109 -105 -46
-267 -66 -388 -47 -159 25 -279 115 -351 265 -104 216 -72 426 87 577 69 66
123 98 222 133 130 46 238 56 336 31z m2027 -121 c139 -47 257 -90 262 -94 12
-12 -23 -110 -39 -110 -8 0 -71 20 -142 45 -70 25 -130 45 -134 45 -7 0 -89
-223 -89 -244 0 -6 15 -17 33 -23 17 -6 80 -27 139 -48 l106 -37 -20 -59 c-11
-32 -21 -59 -23 -59 -1 0 -60 20 -131 45 -70 25 -134 44 -142 43 -9 -2 -33
-57 -63 -146 l-48 -143 23 -9 c12 -4 90 -31 173 -60 l151 -52 -22 -59 c-11
-33 -25 -57 -31 -55 -5 2 -111 38 -235 81 -124 42 -251 86 -282 97 l-56 20 45
132 c25 72 90 262 145 421 55 160 105 305 111 323 6 17 11 32 13 32 1 0 116
-39 256 -86z m-2906 -591 c137 -218 250 -402 252 -408 1 -6 -35 -35 -82 -63
l-85 -52 -123 46 c-68 25 -159 59 -203 76 -44 17 -109 41 -145 54 -36 12 -126
45 -200 73 -74 27 -136 48 -138 46 -2 -2 75 -130 172 -285 97 -155 176 -285
176 -290 0 -8 -145 -105 -173 -116 -9 -3 -93 121 -261 390 -135 218 -249 402
-252 409 -3 9 24 31 79 65 47 29 88 52 92 52 7 0 235 -84 629 -231 87 -33 162
-58 166 -57 4 2 -73 131 -171 287 l-177 285 91 58 c51 31 95 58 98 58 4 0 119
-179 255 -397z m3726 233 c38 -13 89 -37 115 -52 68 -39 153 -129 185 -194
l27 -55 -47 -22 c-26 -13 -52 -23 -57 -23 -6 0 -21 23 -34 50 -57 121 -190
177 -263 111 -45 -41 -42 -78 18 -188 106 -195 124 -243 124 -329 0 -66 -46
-161 -103 -209 -131 -113 -359 -70 -532 101 -45 43 -127 178 -115 186 3 2 31
16 63 31 53 25 58 26 64 10 46 -134 133 -216 228 -216 52 0 85 19 115 69 21
33 22 40 11 88 -6 28 -43 108 -82 177 -82 149 -99 209 -80 292 37 168 182 237
363 173z m840 -631 c155 -140 284 -261 286 -268 1 -7 -15 -30 -37 -51 l-40
-39 -94 87 c-91 83 -111 96 -119 77 -5 -14 -539 -601 -547 -601 -8 0 -175 147
-178 158 -2 4 119 142 268 307 149 165 273 305 276 311 2 7 -19 34 -49 60 -29
27 -73 68 -98 91 l-45 42 40 40 c21 23 42 41 46 41 4 0 135 -115 291 -255z
m-5930 -289 c95 -40 295 -124 443 -186 149 -62 273 -116 277 -119 4 -4 -34
-50 -85 -103 l-92 -97 -124 54 -123 54 -88 -92 c-48 -51 -99 -106 -113 -122
l-25 -31 61 -121 62 -121 -50 -55 c-28 -30 -53 -55 -57 -56 -9 -1 -458 892
-458 910 0 6 35 47 77 91 62 64 82 78 100 73 12 -3 100 -38 195 -79z m6563
-371 c87 -104 165 -198 174 -208 14 -17 12 -21 -29 -56 -35 -30 -48 -36 -58
-28 -8 6 -52 57 -99 114 -47 57 -89 103 -92 103 -10 0 -201 -161 -201 -169 0
-4 41 -55 91 -114 50 -59 89 -111 87 -115 -2 -5 -22 -25 -45 -46 l-41 -37 -97
116 c-85 100 -100 114 -114 103 -54 -42 -217 -182 -219 -190 -2 -4 21 -36 51
-71 30 -34 82 -96 115 -136 l61 -75 -41 -35 c-23 -20 -47 -36 -52 -36 -12 0
-397 457 -394 467 2 4 104 92 228 195 124 104 288 241 365 306 76 64 142 113
146 109 3 -4 77 -92 164 -197z m-6956 -433 c199 -167 361 -307 361 -312 0 -5
-34 -49 -76 -99 l-77 -91 -50 43 c-28 23 -143 119 -256 214 -113 95 -207 170
-209 169 -2 -2 70 -151 159 -330 l161 -326 -36 -45 c-32 -38 -40 -43 -59 -35
-53 24 -650 211 -655 206 -3 -4 -3 -7 -1 -9 2 -2 116 -97 252 -211 l248 -207
-52 -62 c-28 -34 -54 -63 -58 -64 -11 -4 -726 602 -726 615 0 19 138 183 150
178 82 -31 697 -227 701 -223 5 4 -117 264 -279 595 l-46 92 87 104 c48 58 90
104 94 103 4 -1 169 -138 367 -305z m7466 -192 c178 -200 217 -263 223 -366 7
-102 -39 -172 -155 -241 -44 -25 -57 -28 -144 -28 l-96 0 -63 -190 c-34 -104
-67 -200 -71 -213 -9 -22 -13 -20 -108 57 -55 45 -102 85 -105 90 -5 7 18 63
84 206 5 11 27 60 49 109 l41 88 -19 27 c-11 14 -30 36 -44 49 l-25 23 -141
-127 -142 -127 -74 79 c-41 43 -77 87 -80 97 -4 11 3 25 22 41 15 14 172 155
348 315 176 159 325 289 332 288 7 -1 82 -81 168 -177z"/>
<path d="M3370 9547 c0 -6 139 -275 157 -305 14 -22 15 -22 91 59 42 45 78 87
80 93 1 7 -68 43 -154 81 -177 80 -174 78 -174 72z"/>
<path d="M10387 8554 c-64 -58 -117 -109 -117 -113 0 -18 98 -99 134 -111 71
-23 159 17 196 90 24 46 25 78 6 124 -14 33 -82 116 -95 116 -3 0 -59 -48
-124 -106z"/>
<path d="M10995 6819 c-313 -45 -595 -305 -675 -623 -28 -112 -28 -292 1 -407
72 -286 310 -527 599 -606 93 -26 341 -25 425 1 132 40 236 95 333 175 113 93
232 286 267 431 41 170 26 365 -39 519 -47 111 -87 172 -171 260 -192 202
-455 291 -740 250z m348 -148 c37 -12 67 -28 67 -35 0 -56 -244 -138 -412
-138 -102 0 -179 23 -213 64 l-27 32 67 34 c112 56 191 73 330 68 88 -2 138
-9 188 -25z m308 -209 c22 -26 56 -75 76 -109 l35 -63 -22 -46 c-23 -47 -65
-84 -79 -68 -4 5 -16 32 -26 59 -23 63 -77 172 -122 247 -28 48 -33 63 -27 93
l6 35 59 -51 c33 -28 78 -72 100 -97z m-906 53 c25 -18 72 -44 104 -56 95 -34
114 -60 183 -252 49 -140 73 -269 55 -305 -26 -55 -82 -61 -218 -22 -128 38
-305 182 -359 295 -21 43 -22 50 -9 88 19 59 78 153 140 224 30 34 55 62 56
62 2 1 23 -15 48 -34z m688 -35 c29 -23 116 -195 146 -289 66 -204 78 -482 28
-625 -20 -57 -131 -132 -260 -176 -89 -30 -237 -49 -237 -31 0 6 9 43 19 83
34 125 44 228 38 406 -5 181 -22 262 -86 425 -17 43 -31 93 -31 111 0 38 6 42
130 70 36 8 83 22 105 30 58 21 117 20 148 -4z m373 -495 c-5 -95 -29 -182
-75 -273 l-27 -53 4 128 c2 70 -1 162 -6 203 -11 86 -8 95 52 160 l41 45 8
-60 c4 -33 6 -100 3 -150z m-1215 -17 c61 -60 97 -86 171 -122 90 -45 206 -76
282 -76 42 0 56 -16 56 -65 0 -98 -44 -280 -77 -322 l-18 -22 -73 25 c-101 34
-146 58 -220 118 -158 127 -253 325 -252 525 l1 86 26 -35 c15 -19 61 -70 104
-112z"/>
<path d="M1723 6820 c-213 -27 -432 -159 -559 -337 -227 -317 -212 -736 37
-1031 178 -212 446 -319 726 -291 111 11 177 30 278 79 371 180 555 603 434
997 -46 150 -145 298 -267 399 -78 65 -238 146 -332 168 -85 20 -227 27 -317
16z m268 -124 c36 -8 97 -29 135 -47 38 -17 72 -31 77 -31 4 1 7 -9 7 -22 0
-39 -56 -74 -147 -93 -97 -20 -204 -8 -354 39 -103 33 -149 62 -149 96 0 19
15 26 130 58 61 17 220 17 301 0z m-502 -143 c1 -12 -19 -55 -43 -95 -46 -75
-109 -212 -121 -260 -13 -52 -53 -32 -94 48 l-21 40 32 60 c43 81 116 171 177
219 28 22 51 44 52 50 2 16 17 -37 18 -62z m924 -156 c18 -29 43 -77 55 -107
l23 -54 -32 -64 c-77 -157 -284 -300 -462 -318 -58 -6 -66 -4 -92 19 -26 22
-29 30 -27 78 5 110 100 393 153 453 16 19 46 38 71 45 55 16 116 52 148 86
l25 27 52 -57 c29 -31 68 -79 86 -108z m-673 69 c52 -15 112 -31 132 -37 62
-16 64 -34 19 -153 -77 -206 -86 -256 -85 -486 0 -205 3 -233 49 -411 l6 -26
-79 13 c-101 16 -152 30 -218 59 -53 24 -183 109 -196 129 -4 6 -15 53 -24
105 -39 216 21 530 142 747 59 106 77 111 254 60z m-475 -376 c10 -20 11 -49
5 -130 -5 -58 -10 -143 -11 -190 -1 -47 -4 -76 -6 -65 -3 11 -9 25 -14 31 -5
6 -21 45 -36 85 -24 66 -27 90 -29 223 l-2 148 40 -38 c22 -22 46 -50 53 -64z
m1251 -67 c-16 -301 -197 -539 -477 -628 -77 -24 -82 -25 -95 -8 -40 52 -87
296 -68 350 9 26 14 28 84 34 209 17 381 119 524 312 16 20 30 37 33 37 2 0 1
-44 -1 -97z"/>
<path d="M8905 3201 c-64 -23 -165 -80 -172 -97 -5 -13 336 -614 349 -614 19
0 139 81 180 121 46 46 78 118 78 177 0 46 -32 147 -67 215 -95 181 -224 250
-368 198z"/>
</g>
</svg>
